# xmcd
#
# Track frame offsets:
#	150
#	17797
#	32703
#	46365
#	63707
#	79089
#	91832
#	105038
#	117288
#	131778
#	142607
#	164107
#	176646
#	190771
#
# Disc length: 2663 seconds
#
# Revision: 0
# Processed by: cddbd v1.5.2PL0 Copyright (c) Steve Scherf et al.
# Submitted via: audiograbber 1.83.01
#
DISCID=b50a650e
DTITLE=Gone Country - My Kind Of Music
DYEAR=2013
DGENRE=Country
TTITLE0=Gone Country
TTITLE1=Cadillac Cowboy
TTITLE2=I Feel Lucky
TTITLE3=I've Been Everywhere/Get Rhythm
TTITLE4=Convoy
TTITLE5=My Kind Of Music
TTITLE6=Long Legged guitar Pickin Man
TTITLE7=Bad Things
TTITLE8=Harper Valley PTA
TTITLE9=Tryin To Fall In Love
TTITLE10=Ghost Riders In The Sky
TTITLE11=Oklahoma Home
TTITLE12=Eastbound and Down
TTITLE13=Red Solo Cup
EXTD=
EXTT0=
EXTT1=
EXTT2=
EXTT3=
EXTT4=
EXTT5=
EXTT6=
EXTT7=
EXTT8=
EXTT9=
EXTT10=
EXTT11=
EXTT12=
EXTT13=
PLAYORDER=
